<?xml version="1.0" encoding="UTF-8"?>
<svg id="Lizard_Silhouette_3" data-name="Lizard Silhouette 3" xmlns="http://www.w3.org/2000/svg" viewBox="0 0 425.2 341.7">
  <path id="Lizard_Silhouette_3-2" data-name="Lizard Silhouette 3" d="M159.12,341.62c-25.75-1.75-45.93-7.11-67.16-17.86-25.87-13.09-46.86-31.61-63.46-56-4.48-6.58-9.05-14.54-11.75-20.45-.96-2.12-2.25-4.86-2.86-6.09-1.87-3.78-6.63-17.75-8.59-25.23-2.4-9.16-4.2-20.87-4.93-32.14-.54-8.33-.52-9.04.33-9.98,1.15-1.27,2.04-1.29,3.29-.04.83.83,1.02,2.14,1.32,9.2,1.33,31.6,12.75,62.41,31.97,86.28,21.52,26.72,50.09,45.01,82.29,52.68,10.95,2.61,17.45,3.41,30.24,3.71,8,.19,14.35.07,18.41-.34,30.36-3.11,59.09-15.54,80.8-34.97,17.99-16.09,30.44-40.03,35.64-68.53l.95-5.18-1.13-.88c-2.12-1.64-14.09-7.6-15.96-7.94-1.02-.19-2.82-.09-3.98.23-4.58,1.23-12.53,7.84-19.53,16.25l-4.42,5.3-13.5,4.72c-7.42,2.6-13.49,4.58-13.47,4.41.01-.18,2.81-2.51,6.22-5.2,3.41-2.69,6.61-5.34,7.11-5.9.88-.98.87-1.01-.13-.73-1.97.56-23.16,4.08-23.36,3.88-.11-.11,3.99-2.4,9.12-5.1,5.12-2.7,9.31-5.04,9.32-5.22,0-.18-4.16-.49-9.25-.7s-9.52-.54-9.84-.74c-.32-.2,4.77-1.62,11.32-3.16,12.21-2.86,13.68-3.33,12.64-4.03-2.83-1.9-7.93-6.11-7.56-6.23.26-.09,3.21.44,6.57,1.16l6.1,1.32,5.31-5.11c6.18-5.95,11.79-9.8,17.63-12.12,3.77-1.49,4.71-1.65,9.87-1.67,6.35-.02,10.46.91,18.23,4.12,2.39.99,4.45,1.8,4.59,1.8s.25-4.3.25-9.57c0-15.09-2.52-35.74-6.24-51.11-1.63-6.72-5.43-18.57-6.23-19.41-.27-.28-1.46.46-2.94,1.84-8.21,7.64-18.7,12.45-28.89,13.23-10.27.79-22.27-4.07-31.59-12.77l-3.2-2.99-10.12-1.11c-5.56-.61-10.34-1.1-10.61-1.1-1.3,0,1.06-1.12,7.11-3.38,3.64-1.36,6.61-2.61,6.6-2.79,0-.18-3.04-2.87-6.75-5.98-3.7-3.11-6.66-5.73-6.56-5.83.09-.09,4.09.89,8.88,2.18,4.79,1.3,8.81,2.26,8.93,2.14s-.92-3.11-2.32-6.64c-1.39-3.53-2.45-6.52-2.34-6.65.11-.13,3.11,2.67,6.67,6.22l6.47,6.46,2.77-3.11c1.52-1.71,3.38-3.81,4.12-4.66,1.72-1.97,1.75-1.57.36,6.48-.57,3.28-1.03,6.48-1.04,7.1,0,.85,1.15,1.9,4.62,4.22,4.8,3.21,8.86,5.01,13.18,5.82,6.89,1.31,19-4.2,26.78-12.17l2.3-2.36-1.22-2.21c-.67-1.22-3.2-4.97-5.62-8.34-4.7-6.54-13.43-15.36-18.94-19.13-5.69-3.89-12.73-6.43-24.27-8.73-10.62-2.12-16.84-4.8-27.68-11.93-18.63-12.26-31.41-22.53-33.67-27.07-1.53-3.07-1.66-4.7-.58-7.28,2.84-6.78,11.48-10.37,32.95-13.66,7.73-1.18,22.46-1.19,29.93-.02,10.19,1.61,24.51,7.33,33.79,13.5,1.97,1.31,6.59,5.1,10.26,8.42,3.67,3.33,8.65,7.69,11.08,9.71,15.93,13.25,27.58,24.38,34.45,32.89,1.97,2.45,3.31,3.69,3.79,3.5,1.95-.75,6.48-4.21,9.07-6.92,5.14-5.39,6.39-9.34,5.98-18.98-.14-3.46-.43-6.67-.62-7.15-.22-.54-3.04-1.79-7.45-3.32-3.9-1.36-7.28-2.62-7.5-2.82-.23-.2,2.28-.9,5.57-1.57,4.11-.83,5.99-1.44,5.99-1.92,0-.59-3.68-14.39-4.45-16.67-.42-1.25,1,.21,5.3,5.43,2.61,3.18,4.15,4.66,4.38,4.24.2-.36,1.21-4.16,2.25-8.43,1.04-4.28,2.04-8.13,2.21-8.56.17-.43.84,1.96,1.5,5.31,1.98,10.17,2.36,11.8,2.73,11.8.19,0,2.91-2.21,6.03-4.91,3.12-2.7,5.75-4.84,5.83-4.75.08.08-1.39,3.75-3.27,8.15-5.26,12.32-5.01,11.25-3.73,15.91.91,3.32,1.11,5.51,1.12,12.57.02,7.95-.07,8.85-1.37,12.7-2.75,8.21-8.46,15.6-15.85,20.53-2.19,1.46-4.06,2.73-4.16,2.82-.09.09,1.01,1.92,2.45,4.06,15.84,23.47,25.95,55.15,25.98,81.38,0,2.21.16,4.02.34,4.02s1.53-.79,2.98-1.75c11.16-7.37,19.28-7.38,32.39-.06l5.17,2.89,5.61-3.62c3.09-1.99,5.7-3.53,5.81-3.41.11.11-1.11,2.25-2.71,4.77-1.6,2.51-2.73,4.62-2.52,4.69.21.07,6.22-.55,13.35-1.38,7.13-.83,13.02-1.46,13.07-1.39.06.06-4.22,1.95-9.51,4.2-6.82,2.9-9.35,4.2-8.67,4.44.53.19,5.04.86,10.03,1.49,4.99.63,9.43,1.27,9.86,1.43.43.16-4.47,1.27-10.89,2.47-6.42,1.2-12.02,2.3-12.44,2.44-.42.14,2.96,1.49,7.52,3,4.56,1.51,8.62,2.93,9.04,3.15.41.22-5.77.5-13.74.62l-14.49.23-1.82-1.47c-7.52-6.11-14.29-9.94-18.64-10.54-1.96-.27-3.04-.12-4.78.67-2.72,1.24-8.07,6.66-14.25,14.43-4.4,5.54-4.64,5.96-5.81,10.63-7.91,31.36-30.75,64.21-61.79,88.89-35.7,28.38-71.21,42.03-111.77,42.97-5.13.12-10.62.13-12.19.02h0Z"/>
</svg>